<svg width="100" height="32" viewBox="0 0 100 32" fill="none" xmlns="http://www.w3.org/2000/svg">
<g clip-path="url(#clip0_250_2590)">
<path fill-rule="evenodd" clip-rule="evenodd" d="M100 0H56V32H100V0ZM69.8956 8.81086V15.7907V22.7377C69.8956 22.7526 69.8959 22.7675 69.8963 22.7822C69.8969 22.8116 69.8976 22.8407 69.8956 22.8692C69.8894 22.9497 69.9094 22.9973 69.9958 22.9842C70.0164 22.982 70.0369 22.9827 70.0575 22.9835L70.0685 22.9838C70.0751 22.984 70.0817 22.9842 70.0883 22.9842C70.4524 22.9842 70.8166 22.9843 71.181 22.9845H71.1813H71.1817H71.1844C71.913 22.9849 72.6421 22.9853 73.3711 22.9842C73.3941 22.9842 73.4145 22.9844 73.4325 22.9846C73.5026 22.9856 73.5367 22.986 73.553 22.9681C73.5684 22.951 73.5677 22.9174 73.5664 22.8518C73.566 22.8297 73.5654 22.8038 73.5654 22.7739V8.83057C73.5654 8.81963 73.5651 8.80867 73.5648 8.79772C73.5641 8.77582 73.5634 8.75391 73.5654 8.73201C73.5731 8.64988 73.5469 8.60717 73.4637 8.61702C73.4473 8.6192 73.4302 8.61849 73.4129 8.61776C73.4041 8.61739 73.3953 8.61702 73.3866 8.61702C73.0187 8.61702 72.6507 8.61684 72.2826 8.61666H72.2825H72.2823C71.5457 8.61629 70.809 8.61593 70.0729 8.61702C70.0511 8.61702 70.0319 8.61672 70.015 8.61645C69.9544 8.61548 69.9239 8.61499 69.9089 8.631C69.8936 8.64718 69.8941 8.68021 69.895 8.74665V8.74666V8.74667C69.8953 8.76531 69.8956 8.78658 69.8956 8.81086ZM88.174 8.6175H82.7C80.8759 8.6175 79.0518 8.6175 77.2292 8.61586C77.2153 8.61586 77.2015 8.61604 77.1879 8.61622H77.1878C77.1605 8.61659 77.1335 8.61695 77.1058 8.61586C77.0441 8.61258 77.0225 8.64379 77.0272 8.70457C77.0282 8.7231 77.0278 8.74092 77.0275 8.75897V8.759V8.75902C77.0273 8.76815 77.0272 8.77733 77.0272 8.7867V12.1214L77.0271 12.1559V12.1561C77.0267 12.2276 77.0266 12.2628 77.043 12.28C77.059 12.2966 77.0905 12.2964 77.1526 12.2958L77.1952 12.2956H80.6338C80.7459 12.2956 80.8014 12.2956 80.8289 12.3251C80.8559 12.3541 80.8559 12.4116 80.8559 12.5255V22.8073C80.8559 22.827 80.8556 22.8445 80.8554 22.8601C80.8546 22.9191 80.8542 22.95 80.8685 22.9661C80.8841 22.9836 80.9172 22.9835 80.9867 22.9831H80.9868L81.0208 22.983H81.0671H84.3207C84.424 22.983 84.4753 22.983 84.5007 22.9556C84.5257 22.9287 84.5257 22.8754 84.5257 22.7695V12.4877C84.5257 12.4654 84.5255 12.4457 84.5252 12.4283C84.5243 12.3647 84.5238 12.3316 84.5391 12.3146C84.5556 12.2961 84.5905 12.2964 84.6634 12.297L84.7092 12.2972H88.2095C88.3606 12.2972 88.3606 12.2972 88.3621 12.1378V12.0885V8.81955C88.3621 8.79677 88.3624 8.77651 88.3626 8.75852C88.3634 8.68622 88.3638 8.65035 88.3472 8.6328C88.3309 8.61552 88.298 8.61601 88.2328 8.61696C88.2156 8.61722 88.1961 8.6175 88.174 8.6175Z" fill="#EC661D"/>
<path fill-rule="evenodd" clip-rule="evenodd" d="M44 0H0V32H44L56 16L44 0ZM19.4551 13.6617C19.5219 13.7194 19.5891 13.7775 19.6571 13.8357C19.7023 13.8064 19.7302 13.7663 19.7565 13.7285L19.7566 13.7284C19.7627 13.7197 19.7687 13.711 19.7748 13.7026C20.013 13.4007 20.2496 13.0972 20.4863 12.7937L20.4864 12.7936L20.4866 12.7932L20.4871 12.7926C20.9625 12.1865 21.4363 11.5803 21.9102 10.9725C22.0046 10.8509 22.0015 10.7951 21.8931 10.6965C21.808 10.6177 21.7212 10.5404 21.633 10.4632C20.8804 9.80616 20.0535 9.29363 19.1167 8.9963C18.4911 8.79917 17.8516 8.69075 17.2013 8.64312C16.3527 8.58234 15.5119 8.6119 14.6788 8.81724C11.7615 9.53346 9.58438 12.1092 9.32888 15.4111C9.26075 16.3014 9.32579 17.1836 9.53947 18.0493C10.0257 20.0091 11.0817 21.5105 12.7587 22.4994C13.6723 23.0382 14.6618 23.3223 15.7024 23.4111C16.5834 23.4866 17.4552 23.4291 18.3162 23.2222C19.7717 22.8723 21.0585 22.1659 22.2028 21.1556C22.2942 21.0752 22.3313 20.9947 22.3313 20.8666C22.3276 19.2947 22.3279 17.7219 22.3281 16.1497L22.3282 14.9709C22.3282 14.9504 22.3269 14.9297 22.3256 14.909C22.3226 14.863 22.3196 14.8173 22.3313 14.7754C22.3449 14.7267 22.3203 14.6988 22.2964 14.6717C22.2766 14.6493 22.2573 14.6273 22.2601 14.5947C22.2663 14.5405 22.2322 14.5323 22.192 14.5323H22.0836H16.0461C16.0343 14.5323 16.0223 14.5326 16.0103 14.5329C15.986 14.5337 15.9615 14.5344 15.9377 14.5323C15.8758 14.5257 15.8557 14.5585 15.8603 14.6193C15.8624 14.6446 15.8617 14.6705 15.861 14.6962C15.8606 14.709 15.8603 14.7217 15.8603 14.7343C15.8603 15.0793 15.8601 15.4242 15.86 15.7692C15.8596 16.4591 15.8593 17.1491 15.8603 17.839C15.8603 17.8675 15.8598 17.8922 15.8594 17.9133C15.8581 17.9764 15.8575 18.0089 15.8724 18.0254C15.8881 18.0428 15.9213 18.0423 15.9897 18.0415H15.9898C16.0068 18.0413 16.026 18.0411 16.0477 18.0411H18.4788C18.5002 18.0411 18.5192 18.0409 18.536 18.0406C18.6034 18.0398 18.6361 18.0394 18.6518 18.0565C18.6665 18.0729 18.666 18.1049 18.6651 18.167C18.6648 18.189 18.6644 18.2147 18.6646 18.2448C18.6656 18.3948 18.6653 18.544 18.6649 18.6934C18.6647 18.7683 18.6646 18.8432 18.6646 18.9183V18.9237C18.6646 19.232 18.6646 19.2345 18.4029 19.3683C17.6364 19.7594 16.8265 19.871 15.9904 19.7594C15.0613 19.6362 14.318 19.168 13.773 18.3581C13.4184 17.8308 13.2248 17.2362 13.152 16.5955C13.0607 15.7774 13.1536 14.9905 13.502 14.248C13.9216 13.3561 14.5565 12.7154 15.4685 12.4213C16.1081 12.2144 16.7553 12.2686 17.3964 12.418C17.9771 12.5527 18.4834 12.855 18.9495 13.2345C19.1203 13.3722 19.2864 13.5157 19.4551 13.6617ZM36.6544 10.6816C35.2221 9.29191 33.5157 8.6299 31.752 8.61512C30.9375 8.61676 30.3289 8.68739 29.6832 8.86645C27.8096 9.38719 26.3432 10.5042 25.3692 12.2882C24.3689 14.1182 24.166 16.0813 24.725 18.1002C25.3506 20.3572 26.6838 21.9999 28.7464 22.9149C30.3305 23.6163 31.9718 23.71 33.6272 23.2467C35.5503 22.7095 37.0245 21.5219 37.9907 19.6689C38.8052 18.1067 39.0235 16.4311 38.72 14.6816C38.4475 13.1095 37.7662 11.7626 36.6544 10.6816ZM28.7448 14.2101C29.3689 12.983 30.3661 12.395 31.3339 12.3719C33.2973 12.367 34.581 13.5449 34.931 15.1777C35.1431 16.1617 35.0486 17.1178 34.5949 18.0114C34.0607 19.0611 33.2276 19.6722 32.1066 19.8085C31.0226 19.9415 30.0765 19.6147 29.3038 18.7835C28.8083 18.2512 28.5095 17.6023 28.3825 16.8698C28.2215 15.9417 28.3206 15.043 28.7448 14.2101Z" fill="black"/>
</g>
<defs>
<clipPath id="clip0_250_2590">
<rect width="100" height="32" fill="white"/>
</clipPath>
</defs>
</svg>
